<svg width="80" height="80" viewBox="0 0 80 80" fill="none" xmlns="http://www.w3.org/2000/svg">
<rect width="80" height="80" fill="#E5E5E5"/>
<rect width="80" height="80" fill="#D11F1F"/>
<path d="M67.5858 57.4566V53.9516C68.8729 53.0417 69.7144 51.5524 69.7144 49.8715C69.7144 48.1905 68.8729 46.7011 67.5858 45.7911V42.0324V38.0522C68.9978 37.4999 70 36.1367 70 34.5453C69.9999 21.011 58.8719 10 45.1938 10H34.8062C21.128 10 10 21.011 10 34.5455C10 36.1367 11.002 37.5 12.4142 38.0523V42.0325V45.7913C11.127 46.7011 10.2856 48.1905 10.2856 49.8715C10.2856 51.5524 11.1271 53.0418 12.4142 53.9516V57.4566C10.9676 58.3319 10 59.9095 10 61.7066C10 66.2796 13.7599 70 18.3815 70H61.6185C66.2401 70 70 66.2796 70 61.7066C69.9999 59.9095 69.0324 58.3319 67.5858 57.4566ZM43.8414 41.0226V38.3156H54.6314V41.0226H43.8414ZM14.4554 41.0226V38.3156H41.8V41.0226H14.4554ZM56.6727 38.3155H65.5445V41.0224H56.6727V38.3155ZM34.8062 12.0199H45.1938C57.7463 12.0199 67.9586 22.1249 67.9586 34.5455C67.9586 35.5104 67.1651 36.2956 66.19 36.2956H55.6522H42.8209H13.81C12.8349 36.2956 12.0414 35.5104 12.0414 34.5455C12.0414 22.1249 22.2535 12.0199 34.8062 12.0199ZM14.4554 44.8865V43.0425H42.8207H55.6521H65.5445V44.8865H33.243C32.9724 44.8865 32.7127 44.9928 32.5212 45.1823L28.533 49.1287L24.5446 45.1823C24.3532 44.9928 24.0936 44.8865 23.8229 44.8865H14.4554ZM14.96 46.9064H23.4002L27.8112 51.2711C28.0027 51.4605 28.2622 51.5669 28.533 51.5669C28.8038 51.5669 29.0633 51.4605 29.2548 51.2711L33.6657 46.9064H65.0398C66.5229 47.0974 67.6729 48.3528 67.6729 49.8715C67.6729 51.5219 66.3159 52.8645 64.648 52.8645H15.3518C13.6839 52.8645 12.327 51.5219 12.327 49.8715C12.327 48.3528 13.477 47.0974 14.96 46.9064ZM14.4554 56.7286V54.8844H65.5443V56.7286H56.1767C55.9061 56.7286 55.6464 56.8349 55.4549 57.0243L51.4666 60.9706L47.4783 57.0243C47.2869 56.8349 47.0274 56.7286 46.7566 56.7286H14.4554ZM61.6185 67.9801H18.3815C14.8855 67.9801 12.0414 65.1658 12.0414 61.7066C12.0414 60.0754 13.3825 58.7485 15.0309 58.7485H46.3342L50.7451 63.113C50.9444 63.3102 51.2056 63.4088 51.4669 63.4088C51.728 63.4088 51.9893 63.3101 52.1886 63.113L56.5997 58.7485H64.9689C66.6175 58.7485 67.9585 60.0755 67.9585 61.7066C67.9585 65.1658 65.1145 67.9801 61.6185 67.9801Z" fill="white"/>
<path d="M21.2814 25.4378C21.5427 25.4378 21.8038 25.3391 22.0031 25.142L24.1903 22.9778C24.5889 22.5835 24.5889 21.9439 24.1903 21.5496C23.7918 21.1553 23.1454 21.1553 22.7469 21.5496L20.5598 23.7138C20.1611 24.1081 20.1611 24.7477 20.5598 25.142C20.7589 25.3391 21.0202 25.4378 21.2814 25.4378Z" fill="white"/>
<path d="M33.0314 25.4378C33.2927 25.4378 33.5538 25.3391 33.7532 25.142L35.9403 22.9778C36.339 22.5835 36.339 21.9439 35.9403 21.5496C35.5418 21.1553 34.8954 21.1553 34.4969 21.5496L32.3098 23.7138C31.9111 24.1081 31.9111 24.7477 32.3098 25.142C32.509 25.3391 32.7701 25.4378 33.0314 25.4378Z" fill="white"/>
<path d="M44.7813 25.4378C45.0426 25.4378 45.3037 25.3391 45.503 25.142L47.6902 22.9778C48.0889 22.5835 48.0889 21.9439 47.6902 21.5496C47.2917 21.1553 46.6453 21.1553 46.2468 21.5496L44.0597 23.7138C43.661 24.1081 43.661 24.7477 44.0597 25.142C44.2588 25.3391 44.5201 25.4378 44.7813 25.4378Z" fill="white"/>
<path d="M56.5312 25.4378C56.7925 25.4378 57.0536 25.3391 57.2529 25.142L59.4401 22.9778C59.8387 22.5835 59.8387 21.9439 59.4401 21.5496C59.0416 21.1553 58.3952 21.1553 57.9967 21.5496L55.8095 23.7138C55.4109 24.1081 55.4109 24.7477 55.8095 25.142C56.0087 25.3391 56.27 25.4378 56.5312 25.4378Z" fill="white"/>
<path d="M52.1217 18.7293C52.321 18.9265 52.5822 19.025 52.8435 19.025C53.1048 19.025 53.3659 18.9264 53.5652 18.7293C53.9639 18.335 53.9639 17.6954 53.5652 17.3011L51.3781 15.1369C50.9795 14.7426 50.3332 14.7426 49.9347 15.1369C49.536 15.5312 49.536 16.1708 49.9347 16.5651L52.1217 18.7293Z" fill="white"/>
<path d="M40.3718 18.7293C40.5712 18.9265 40.8323 19.025 41.0936 19.025C41.3549 19.025 41.616 18.9264 41.8154 18.7293C42.214 18.335 42.214 17.6954 41.8154 17.3011L39.6282 15.1369C39.2297 14.7426 38.5833 14.7426 38.1848 15.1369C37.7862 15.5312 37.7862 16.1708 38.1848 16.5651L40.3718 18.7293Z" fill="white"/>
<path d="M28.622 18.7293C28.8213 18.9265 29.0824 19.025 29.3437 19.025C29.605 19.025 29.8662 18.9264 30.0655 18.7293C30.4641 18.335 30.4641 17.6954 30.0655 17.3011L27.8783 15.1369C27.4798 14.7426 26.8334 14.7426 26.4349 15.1369C26.0363 15.5312 26.0363 16.1708 26.4349 16.5651L28.622 18.7293Z" fill="white"/>
</svg>
