<svg width="100" height="100" viewBox="0 0 100 100" fill="none" xmlns="http://www.w3.org/2000/svg">
<rect width="100" height="100" fill="#E5E5E5"/>
<rect width="100" height="100" fill="#D11F1F"/>
<path d="M78.5858 57.4566V53.9516C79.8729 53.0417 80.7144 51.5524 80.7144 49.8715C80.7144 48.1905 79.8729 46.7011 78.5858 45.7911V42.0324V38.0522C79.9978 37.4999 81 36.1367 81 34.5453C80.9999 21.011 69.8719 10 56.1938 10H45.8062C32.128 10 21 21.011 21 34.5455C21 36.1367 22.002 37.5 23.4142 38.0523V42.0325V45.7913C22.127 46.7011 21.2856 48.1905 21.2856 49.8715C21.2856 51.5524 22.1271 53.0418 23.4142 53.9516V57.4566C21.9676 58.3319 21 59.9095 21 61.7066C21 66.2796 24.7599 70 29.3815 70H72.6185C77.2401 70 81 66.2796 81 61.7066C80.9999 59.9095 80.0324 58.3319 78.5858 57.4566ZM54.8414 41.0226V38.3156H65.6314V41.0226H54.8414ZM25.4554 41.0226V38.3156H52.8V41.0226H25.4554ZM67.6727 38.3155H76.5445V41.0224H67.6727V38.3155ZM45.8062 12.0199H56.1938C68.7463 12.0199 78.9586 22.1249 78.9586 34.5455C78.9586 35.5104 78.1651 36.2956 77.19 36.2956H66.6522H53.8209H24.81C23.8349 36.2956 23.0414 35.5104 23.0414 34.5455C23.0414 22.1249 33.2535 12.0199 45.8062 12.0199ZM25.4554 44.8865V43.0425H53.8207H66.6521H76.5445V44.8865H44.243C43.9724 44.8865 43.7127 44.9928 43.5212 45.1823L39.533 49.1287L35.5446 45.1823C35.3532 44.9928 35.0936 44.8865 34.8229 44.8865H25.4554ZM25.96 46.9064H34.4002L38.8112 51.2711C39.0027 51.4605 39.2622 51.5669 39.533 51.5669C39.8038 51.5669 40.0633 51.4605 40.2548 51.2711L44.6657 46.9064H76.0398C77.5228 47.0974 78.6729 48.3528 78.6729 49.8715C78.6729 51.5219 77.3159 52.8645 75.648 52.8645H26.3518C24.6839 52.8645 23.327 51.5219 23.327 49.8715C23.327 48.3528 24.477 47.0974 25.96 46.9064ZM25.4554 56.7286V54.8844H76.5443V56.7286H67.1767C66.9061 56.7286 66.6464 56.8349 66.4549 57.0243L62.4666 60.9706L58.4783 57.0243C58.2869 56.8349 58.0274 56.7286 57.7566 56.7286H25.4554ZM72.6185 67.9801H29.3815C25.8855 67.9801 23.0414 65.1658 23.0414 61.7066C23.0414 60.0754 24.3825 58.7485 26.0309 58.7485H57.3342L61.7451 63.113C61.9444 63.3102 62.2056 63.4088 62.4669 63.4088C62.728 63.4088 62.9893 63.3101 63.1886 63.113L67.5997 58.7485H75.9689C77.6175 58.7485 78.9585 60.0755 78.9585 61.7066C78.9585 65.1658 76.1145 67.9801 72.6185 67.9801Z" fill="white"/>
<path d="M32.2814 25.4378C32.5427 25.4378 32.8038 25.3391 33.0031 25.142L35.1903 22.9778C35.5889 22.5835 35.5889 21.9439 35.1903 21.5496C34.7918 21.1553 34.1454 21.1553 33.7469 21.5496L31.5598 23.7138C31.1611 24.1081 31.1611 24.7477 31.5598 25.142C31.7589 25.3391 32.0202 25.4378 32.2814 25.4378Z" fill="white"/>
<path d="M44.0314 25.4378C44.2927 25.4378 44.5538 25.3391 44.7532 25.142L46.9403 22.9778C47.339 22.5835 47.339 21.9439 46.9403 21.5496C46.5418 21.1553 45.8954 21.1553 45.4969 21.5496L43.3098 23.7138C42.9111 24.1081 42.9111 24.7477 43.3098 25.142C43.509 25.3391 43.7701 25.4378 44.0314 25.4378Z" fill="white"/>
<path d="M55.7813 25.4378C56.0426 25.4378 56.3037 25.3391 56.503 25.142L58.6902 22.9778C59.0889 22.5835 59.0889 21.9439 58.6902 21.5496C58.2917 21.1553 57.6453 21.1553 57.2468 21.5496L55.0597 23.7138C54.661 24.1081 54.661 24.7477 55.0597 25.142C55.2588 25.3391 55.5201 25.4378 55.7813 25.4378Z" fill="white"/>
<path d="M67.5312 25.4378C67.7925 25.4378 68.0536 25.3391 68.2529 25.142L70.4401 22.9778C70.8387 22.5835 70.8387 21.9439 70.4401 21.5496C70.0416 21.1553 69.3952 21.1553 68.9967 21.5496L66.8095 23.7138C66.4109 24.1081 66.4109 24.7477 66.8095 25.142C67.0087 25.3391 67.27 25.4378 67.5312 25.4378Z" fill="white"/>
<path d="M63.1217 18.7293C63.321 18.9265 63.5822 19.025 63.8435 19.025C64.1048 19.025 64.3659 18.9264 64.5652 18.7293C64.9639 18.335 64.9639 17.6954 64.5652 17.3011L62.3781 15.1369C61.9795 14.7426 61.3332 14.7426 60.9347 15.1369C60.536 15.5312 60.536 16.1708 60.9347 16.5651L63.1217 18.7293Z" fill="white"/>
<path d="M51.3718 18.7293C51.5712 18.9265 51.8323 19.025 52.0936 19.025C52.3549 19.025 52.616 18.9264 52.8154 18.7293C53.214 18.335 53.214 17.6954 52.8154 17.3011L50.6282 15.1369C50.2297 14.7426 49.5833 14.7426 49.1848 15.1369C48.7862 15.5312 48.7862 16.1708 49.1848 16.5651L51.3718 18.7293Z" fill="white"/>
<path d="M39.622 18.7293C39.8213 18.9265 40.0824 19.025 40.3437 19.025C40.605 19.025 40.8662 18.9264 41.0655 18.7293C41.4641 18.335 41.4641 17.6954 41.0655 17.3011L38.8783 15.1369C38.4798 14.7426 37.8334 14.7426 37.4349 15.1369C37.0363 15.5312 37.0363 16.1708 37.4349 16.5651L39.622 18.7293Z" fill="white"/>
<path d="M14.2479 90.08C13.9279 90.08 13.6719 89.9893 13.4799 89.808C13.2986 89.616 13.2079 89.3653 13.2079 89.056V80.416H10.2959C9.65594 80.416 9.33594 80.1333 9.33594 79.568C9.33594 79.0027 9.65594 78.72 10.2959 78.72H18.1839C18.8239 78.72 19.1439 79.0027 19.1439 79.568C19.1439 80.1333 18.8239 80.416 18.1839 80.416H15.2719V89.056C15.2719 89.3653 15.1759 89.616 14.9839 89.808C14.8026 89.9893 14.5573 90.08 14.2479 90.08ZM25.6082 81.984C27.4429 81.984 28.3602 83.056 28.3602 85.2V89.136C28.3602 89.4347 28.2695 89.6693 28.0882 89.84C27.9175 90.0107 27.6775 90.096 27.3682 90.096C27.0589 90.096 26.8135 90.0107 26.6322 89.84C26.4509 89.6693 26.3602 89.4347 26.3602 89.136V85.2C26.3602 84.6347 26.2429 84.224 26.0082 83.968C25.7842 83.7013 25.4269 83.568 24.9362 83.568C24.3602 83.568 23.8962 83.7493 23.5442 84.112C23.2029 84.4747 23.0322 84.96 23.0322 85.568V89.136C23.0322 89.4347 22.9415 89.6693 22.7602 89.84C22.5789 90.0107 22.3335 90.096 22.0242 90.096C21.7149 90.096 21.4695 90.0107 21.2882 89.84C21.1175 89.6693 21.0322 89.4347 21.0322 89.136V79.568C21.0322 79.2907 21.1229 79.0667 21.3042 78.896C21.4962 78.7253 21.7415 78.64 22.0402 78.64C22.3389 78.64 22.5789 78.72 22.7602 78.88C22.9415 79.04 23.0322 79.2587 23.0322 79.536V83.264C23.2989 82.848 23.6509 82.5333 24.0882 82.32C24.5362 82.096 25.0429 81.984 25.6082 81.984ZM36.5836 87.856C36.7649 87.856 36.9089 87.9253 37.0156 88.064C37.1329 88.2027 37.1916 88.3893 37.1916 88.624C37.1916 88.9547 36.9942 89.232 36.5996 89.456C36.2369 89.6587 35.8262 89.824 35.3676 89.952C34.9089 90.0693 34.4716 90.128 34.0556 90.128C32.7969 90.128 31.7996 89.7653 31.0636 89.04C30.3276 88.3147 29.9596 87.3227 29.9596 86.064C29.9596 85.264 30.1196 84.5547 30.4396 83.936C30.7596 83.3173 31.2076 82.8373 31.7836 82.496C32.3702 82.1547 33.0316 81.984 33.7676 81.984C34.4716 81.984 35.0849 82.1387 35.6076 82.448C36.1302 82.7573 36.5356 83.1947 36.8236 83.76C37.1116 84.3253 37.2556 84.992 37.2556 85.76C37.2556 86.2187 37.0529 86.448 36.6476 86.448H31.9276C31.9916 87.184 32.1996 87.728 32.5516 88.08C32.9036 88.4213 33.4156 88.592 34.0876 88.592C34.4289 88.592 34.7276 88.5493 34.9836 88.464C35.2502 88.3787 35.5489 88.2613 35.8796 88.112C36.1996 87.9413 36.4342 87.856 36.5836 87.856ZM33.8156 83.392C33.2716 83.392 32.8342 83.5627 32.5036 83.904C32.1836 84.2453 31.9916 84.736 31.9276 85.376H35.5436C35.5222 84.7253 35.3622 84.2347 35.0636 83.904C34.7649 83.5627 34.3489 83.392 33.8156 83.392ZM50.3553 84.176C51.006 84.3573 51.5073 84.688 51.8593 85.168C52.222 85.648 52.4033 86.2347 52.4033 86.928C52.4033 87.888 52.0566 88.64 51.3633 89.184C50.6806 89.728 49.7366 90 48.5313 90H44.4033C44.094 90 43.8486 89.9147 43.6673 89.744C43.4966 89.5733 43.4113 89.3333 43.4113 89.024V79.696C43.4113 79.3867 43.4966 79.1467 43.6673 78.976C43.8486 78.8053 44.094 78.72 44.4033 78.72H48.3713C49.5446 78.72 50.462 78.9813 51.1233 79.504C51.7953 80.016 52.1313 80.736 52.1313 81.664C52.1313 82.2613 51.9713 82.7787 51.6513 83.216C51.342 83.6533 50.91 83.9733 50.3553 84.176ZM45.4273 83.472H48.0353C49.454 83.472 50.1633 82.944 50.1633 81.888C50.1633 81.3547 49.9873 80.96 49.6353 80.704C49.2833 80.448 48.75 80.32 48.0353 80.32H45.4273V83.472ZM48.3073 88.4C49.054 88.4 49.598 88.2667 49.9393 88C50.2806 87.7333 50.4513 87.3173 50.4513 86.752C50.4513 86.1867 50.2753 85.7653 49.9233 85.488C49.582 85.2107 49.0433 85.072 48.3073 85.072H45.4273V88.4H48.3073ZM60.3332 82.016C60.6425 82.016 60.8879 82.1013 61.0692 82.272C61.2505 82.4427 61.3412 82.672 61.3412 82.96V89.168C61.3412 89.4453 61.2452 89.6693 61.0532 89.84C60.8719 90.0107 60.6319 90.096 60.3332 90.096C60.0452 90.096 59.8159 90.016 59.6452 89.856C59.4745 89.696 59.3892 89.4773 59.3892 89.2V88.8C59.1439 89.2267 58.8132 89.5573 58.3972 89.792C57.9812 90.016 57.5119 90.128 56.9892 90.128C55.0692 90.128 54.1092 89.0507 54.1092 86.896V82.96C54.1092 82.672 54.1999 82.4427 54.3812 82.272C54.5625 82.1013 54.8025 82.016 55.1012 82.016C55.4105 82.016 55.6559 82.1013 55.8372 82.272C56.0185 82.4427 56.1092 82.672 56.1092 82.96V86.912C56.1092 87.4667 56.2212 87.8773 56.4452 88.144C56.6692 88.4107 57.0212 88.544 57.5012 88.544C58.0559 88.544 58.4985 88.3627 58.8292 88C59.1705 87.6267 59.3412 87.136 59.3412 86.528V82.96C59.3412 82.672 59.4319 82.4427 59.6132 82.272C59.7945 82.1013 60.0345 82.016 60.3332 82.016ZM67.7908 82.016C68.0681 81.9947 68.2868 82.0533 68.4468 82.192C68.6068 82.3307 68.6868 82.5387 68.6868 82.816C68.6868 83.104 68.6175 83.3173 68.4788 83.456C68.3401 83.5947 68.0895 83.6853 67.7268 83.728L67.2468 83.776C66.6175 83.84 66.1535 84.0533 65.8548 84.416C65.5668 84.7787 65.4228 85.232 65.4228 85.776V89.136C65.4228 89.4453 65.3268 89.6853 65.1348 89.856C64.9428 90.016 64.7028 90.096 64.4148 90.096C64.1268 90.096 63.8868 90.016 63.6948 89.856C63.5135 89.6853 63.4228 89.4453 63.4228 89.136V82.944C63.4228 82.6453 63.5135 82.416 63.6948 82.256C63.8868 82.096 64.1215 82.016 64.3988 82.016C64.6761 82.016 64.9001 82.096 65.0708 82.256C65.2415 82.4053 65.3268 82.624 65.3268 82.912V83.552C65.5295 83.0827 65.8281 82.72 66.2228 82.464C66.6281 82.208 67.0761 82.064 67.5668 82.032L67.7908 82.016ZM76.0156 82.016C76.3142 82.016 76.5542 82.1013 76.7356 82.272C76.9169 82.4427 77.0076 82.672 77.0076 82.96V89.28C77.0076 90.5067 76.6662 91.4347 75.9836 92.064C75.3009 92.6933 74.2929 93.008 72.9596 93.008C71.7969 93.008 70.8262 92.7893 70.0476 92.352C69.6529 92.1173 69.4556 91.8347 69.4556 91.504C69.4556 91.2693 69.5089 91.0827 69.6156 90.944C69.7329 90.8053 69.8822 90.736 70.0636 90.736C70.1596 90.736 70.2769 90.7573 70.4156 90.8C70.5542 90.8533 70.6982 90.912 70.8476 90.976C71.2316 91.136 71.5729 91.2587 71.8716 91.344C72.1809 91.4293 72.5329 91.472 72.9276 91.472C74.3249 91.472 75.0236 90.7893 75.0236 89.424V88.4C74.7889 88.8373 74.4476 89.1787 73.9996 89.424C73.5516 89.6587 73.0396 89.776 72.4636 89.776C71.7809 89.776 71.1729 89.616 70.6396 89.296C70.1169 88.9653 69.7062 88.5067 69.4076 87.92C69.1089 87.3333 68.9596 86.656 68.9596 85.888C68.9596 85.12 69.1036 84.4427 69.3916 83.856C69.6902 83.2587 70.1062 82.8 70.6396 82.48C71.1729 82.1493 71.7809 81.984 72.4636 81.984C73.0396 81.984 73.5516 82.1067 73.9996 82.352C74.4476 82.5867 74.7889 82.9227 75.0236 83.36V82.944C75.0236 82.6667 75.1142 82.4427 75.2956 82.272C75.4769 82.1013 75.7169 82.016 76.0156 82.016ZM72.9916 88.224C73.6316 88.224 74.1276 88.016 74.4796 87.6C74.8422 87.184 75.0236 86.6133 75.0236 85.888C75.0236 85.152 74.8422 84.576 74.4796 84.16C74.1276 83.744 73.6316 83.536 72.9916 83.536C72.3622 83.536 71.8662 83.744 71.5036 84.16C71.1409 84.576 70.9596 85.152 70.9596 85.888C70.9596 86.6133 71.1409 87.184 71.5036 87.6C71.8662 88.016 72.3622 88.224 72.9916 88.224ZM85.2711 87.856C85.4524 87.856 85.5964 87.9253 85.7031 88.064C85.8204 88.2027 85.8791 88.3893 85.8791 88.624C85.8791 88.9547 85.6817 89.232 85.2871 89.456C84.9244 89.6587 84.5137 89.824 84.0551 89.952C83.5964 90.0693 83.1591 90.128 82.7431 90.128C81.4844 90.128 80.4871 89.7653 79.7511 89.04C79.0151 88.3147 78.6471 87.3227 78.6471 86.064C78.6471 85.264 78.8071 84.5547 79.1271 83.936C79.4471 83.3173 79.8951 82.8373 80.4711 82.496C81.0577 82.1547 81.7191 81.984 82.4551 81.984C83.1591 81.984 83.7724 82.1387 84.2951 82.448C84.8177 82.7573 85.2231 83.1947 85.5111 83.76C85.7991 84.3253 85.9431 84.992 85.9431 85.76C85.9431 86.2187 85.7404 86.448 85.3351 86.448H80.6151C80.6791 87.184 80.8871 87.728 81.2391 88.08C81.5911 88.4213 82.1031 88.592 82.7751 88.592C83.1164 88.592 83.4151 88.5493 83.6711 88.464C83.9377 88.3787 84.2364 88.2613 84.5671 88.112C84.8871 87.9413 85.1217 87.856 85.2711 87.856ZM82.5031 83.392C81.9591 83.392 81.5217 83.5627 81.1911 83.904C80.8711 84.2453 80.6791 84.736 80.6151 85.376H84.2311C84.2097 84.7253 84.0497 84.2347 83.7511 83.904C83.4524 83.5627 83.0364 83.392 82.5031 83.392ZM91.9471 82.016C92.2244 81.9947 92.4431 82.0533 92.6031 82.192C92.7631 82.3307 92.8431 82.5387 92.8431 82.816C92.8431 83.104 92.7737 83.3173 92.6351 83.456C92.4964 83.5947 92.2457 83.6853 91.8831 83.728L91.4031 83.776C90.7737 83.84 90.3097 84.0533 90.0111 84.416C89.7231 84.7787 89.5791 85.232 89.5791 85.776V89.136C89.5791 89.4453 89.4831 89.6853 89.2911 89.856C89.0991 90.016 88.8591 90.096 88.5711 90.096C88.2831 90.096 88.0431 90.016 87.8511 89.856C87.6697 89.6853 87.5791 89.4453 87.5791 89.136V82.944C87.5791 82.6453 87.6697 82.416 87.8511 82.256C88.0431 82.096 88.2777 82.016 88.5551 82.016C88.8324 82.016 89.0564 82.096 89.2271 82.256C89.3977 82.4053 89.4831 82.624 89.4831 82.912V83.552C89.6857 83.0827 89.9844 82.72 90.3791 82.464C90.7844 82.208 91.2324 82.064 91.7231 82.032L91.9471 82.016Z" fill="white"/>
</svg>
